<svg width="20" height="20" viewBox="0 0 20 20" fill="none" xmlns="http://www.w3.org/2000/svg">
<path fill-rule="evenodd" clip-rule="evenodd" d="M14.3057 3.69937C14.7939 3.21121 15.5853 3.21121 16.0735 3.69937C16.5616 4.18752 16.5616 4.97898 16.0735 5.46714L11.6538 9.88659L16.0735 14.306C16.5311 14.7636 16.5597 15.4878 16.1593 15.9788L16.0735 16.0737C15.5853 16.5619 14.7939 16.5619 14.3057 16.0737L9.88634 11.6541L5.46689 16.0737C5.00925 16.5314 4.28503 16.56 3.79406 16.1595L3.69912 16.0737C3.21097 15.5856 3.21097 14.7941 3.69912 14.306L8.11884 9.88659L3.69912 5.46714C3.24148 5.00949 3.21288 4.28527 3.61332 3.7943L3.69912 3.69937C4.18728 3.21121 4.97874 3.21121 5.46689 3.69937L9.88634 8.11909L14.3057 3.69937Z" fill="#1A1D1F"/>
</svg>
