<svg width="10" height="20" viewBox="0 0 10 20" fill="none" xmlns="http://www.w3.org/2000/svg">
<circle cx="5" cy="12.9023" r="4.5" stroke="black"/>
<path d="M5.33856 10.0543C5.99456 10.0543 6.5519 10.241 7.01056 10.6143C7.46923 10.9823 7.73323 11.481 7.80256 12.1103H6.58656C6.5439 11.8277 6.40256 11.5903 6.16256 11.3983C5.92256 11.2063 5.6479 11.1103 5.33856 11.1103C4.83723 11.1103 4.45323 11.289 4.18656 11.6463C3.9199 12.0037 3.78656 12.4783 3.78656 13.0703C3.78656 13.6357 3.9199 14.097 4.18656 14.4543C4.45323 14.8063 4.83723 14.9823 5.33856 14.9823C5.70123 14.9823 5.99456 14.8703 6.21856 14.6463C6.44256 14.4223 6.58123 14.1077 6.63456 13.7023H7.85056C7.78656 14.4223 7.5279 14.993 7.07456 15.4143C6.62123 15.8303 6.04256 16.0383 5.33856 16.0383C4.48523 16.0383 3.80256 15.7583 3.29056 15.1983C2.7839 14.6383 2.53056 13.929 2.53056 13.0703C2.53056 12.201 2.7839 11.481 3.29056 10.9103C3.79723 10.3397 4.4799 10.0543 5.33856 10.0543Z" fill="black"/>
</svg>
