<svg width="122" height="122" viewBox="0 0 122 122" fill="none" xmlns="http://www.w3.org/2000/svg">
<path fill-rule="evenodd" clip-rule="evenodd" d="M115.481 104.767L110.222 102.237C109.115 101.703 108.07 101.05 107.106 100.289C116.642 89.3394 121.838 75.2767 121.712 60.7575C121.668 27.2209 94.4924 0.0450165 60.9558 0.000686288C53.4918 -0.0354081 46.0893 1.35256 39.1456 4.09082V15.1921C45.9509 11.9325 53.4103 10.2689 60.9558 10.3282C88.8815 10.4114 111.5 33.028 111.585 60.9537C111.672 72.7801 107.529 84.2481 99.9017 93.287C99.139 92.2538 98.486 91.144 97.9533 89.9755L95.4233 84.7192C94.8905 83.4595 93.5602 82.7328 92.2124 82.9653C90.8646 83.1977 89.8546 84.328 89.7745 85.6933V107.297C89.8126 108.895 91.099 110.181 92.697 110.22H114.311C115.629 110.175 116.748 109.239 117.025 107.95C117.301 106.661 116.665 105.348 115.481 104.767Z" fill="#8A8A8D"/>
<path fill-rule="evenodd" clip-rule="evenodd" d="M60.7596 20.4481C53.1125 20.4524 45.6213 22.6118 39.1455 26.679V35.6289C39.169 39.2473 37.2104 42.5884 34.0416 44.3354C30.8728 46.0825 27.002 45.9553 23.9548 44.004C18.1906 56.5484 19.2083 71.1642 26.6553 82.7888C34.1022 94.4133 46.9542 101.448 60.7596 101.456C68.4958 101.477 76.071 99.2453 82.5595 95.0322V85.683C82.5368 82.0657 84.495 78.726 87.6626 76.9792C90.8302 75.2324 94.6997 75.3585 97.7468 77.308C100.118 72.115 101.315 66.4626 101.251 60.7541C101.25 50.0324 96.9779 39.7528 89.3791 32.1888C81.7803 24.6249 71.4812 20.4 60.7596 20.4481Z" fill="#00609D"/>
<path fill-rule="evenodd" clip-rule="evenodd" d="M60.7596 20.4481C53.1125 20.4524 45.6213 22.6118 39.1455 26.679V35.6289C39.169 39.2473 37.2104 42.5884 34.0416 44.3354C30.8728 46.0825 27.002 45.9553 23.9548 44.004C18.1906 56.5484 19.2083 71.1642 26.6553 82.7888C34.1022 94.4133 46.9542 101.448 60.7596 101.456C68.4958 101.477 76.071 99.2453 82.5595 95.0322V85.683C82.5368 82.0657 84.495 78.726 87.6626 76.9792C90.8302 75.2324 94.6997 75.3585 97.7468 77.308C100.118 72.115 101.315 66.4626 101.251 60.7541C101.25 50.0324 96.9779 39.7528 89.3791 32.1888C81.7803 24.6249 71.4812 20.4 60.7596 20.4481Z" fill="url(#paint0_radial_8169_67696)" fill-opacity="0.2"/>
<path fill-rule="evenodd" clip-rule="evenodd" d="M60.9558 111.39C33.0287 111.305 10.4115 88.6846 10.3303 60.7575C10.2985 59.65 10.3641 58.542 10.5265 57.446V56.6681C10.5265 55.8901 10.7227 54.916 10.7227 54.138V53.5528C11.7875 46.855 14.1708 40.4351 17.7346 34.6651C19.0492 32.4666 20.5461 30.3824 22.2095 28.4346C22.9722 29.4677 23.6252 30.5775 24.1579 31.746L26.6879 37.0024C27.2955 38.207 28.6577 38.8287 29.9658 38.4983C31.274 38.168 32.1777 36.9741 32.1405 35.6255V14.0252C32.1023 12.4259 30.8139 11.139 29.2146 11.1027H7.59709C6.24842 11.0655 5.05457 11.9693 4.72423 13.2774C4.3939 14.5855 5.01556 15.9477 6.22019 16.5553L11.4765 19.0853C12.6218 19.6617 13.728 20.3125 14.788 21.0337C11.2947 24.9984 8.41169 29.4616 6.23395 34.2761C4.99563 36.7882 3.95409 39.3927 3.1187 42.066C2.92249 42.4549 2.92249 42.6511 2.72972 43.0401C2.34074 44.0143 2.14454 45.1812 1.75556 46.3516C1.75556 46.5478 1.55935 46.9368 1.55935 47.1295C1.20633 48.4103 0.946335 49.7148 0.781396 51.0331C0.831953 51.3707 0.762523 51.7155 0.585186 52.0072C0.388977 52.9814 0.388977 54.1483 0.19621 55.1225C0.226261 55.5216 0.158928 55.9221 0 56.2894C0.154314 57.7758 0.219834 59.2701 0.19621 60.7644C0.239826 94.301 27.4157 121.477 60.9523 121.521C68.4163 121.557 75.8188 120.169 82.7626 117.431V106.326C75.9555 109.6 68.509 111.329 60.9558 111.39Z" fill="#00609C"/>
<defs>
<radialGradient id="paint0_radial_8169_67696" cx="0" cy="0" r="1" gradientUnits="userSpaceOnUse" gradientTransform="translate(51 43.5) rotate(80.4474) scale(58.7708 58.7653)">
<stop offset="0.0186388" stop-color="#EFF6F9"/>
<stop offset="0.17869" stop-color="#EFF6F9"/>
<stop offset="0.211326" stop-color="#EFF6F9"/>
<stop offset="1" stop-opacity="0"/>
</radialGradient>
</defs>
</svg>
