<svg width="196" height="31" viewBox="0 0 196 31" fill="none" xmlns="http://www.w3.org/2000/svg">
<path d="M117.112 12.7763C117.112 9.161 114.587 7.03211 111.764 7.03211C111.014 6.97015 110.262 7.12944 109.602 7.49025C108.942 7.85107 108.402 8.39756 108.049 9.06209C107.697 8.39843 107.158 7.85252 106.499 7.49177C105.84 7.13101 105.089 6.97121 104.34 7.03211C101.468 7.03211 98.9919 9.16188 98.9919 12.7763V23.6711H102.607V13.1728C102.607 11.8361 102.805 10.2018 104.39 10.2018C105.976 10.2018 106.17 11.7862 106.17 13.1728V18.2736H109.785V13.1728C109.785 11.8361 110.033 10.2018 111.568 10.2018C113.153 10.2018 113.351 11.7862 113.351 13.1728V23.6711H117.016V12.7763H117.112Z" fill="#EA4B37"/>
<path d="M146.482 9.16175C145.952 8.95312 145.438 8.70468 144.946 8.41856C144.813 8.35802 144.7 8.26043 144.621 8.13748C144.542 8.01453 144.5 7.87142 144.501 7.72527V7.03198H140.984V8.02202C140.984 10.052 142.024 10.4984 144.398 11.7861L145.983 12.6282C146.458 12.8713 146.849 13.2517 147.105 13.7201C147.361 14.1884 147.471 14.723 147.419 15.2543V17.5802C147.419 19.4622 146.429 20.6011 144.894 20.6011C144.275 20.6148 143.674 20.3918 143.214 19.9777C142.753 19.5635 142.469 18.9894 142.417 18.3724L138.852 18.2734V18.4713C138.822 19.5775 139.171 20.6607 139.842 21.5412C140.453 22.2928 141.234 22.8873 142.122 23.275C143.009 23.6627 143.976 23.8324 144.943 23.7699C148.013 23.7699 151.033 21.7889 151.033 18.0257V14.807C151.037 11.6872 149.502 10.3006 146.482 9.16175Z" fill="#EA4B37"/>
<path d="M133.108 13.024C133.108 10.7953 132.959 10.2509 132.662 9.7554C132.318 9.33895 131.876 9.0154 131.374 8.81438L130.483 8.41784C130.341 8.35062 130.22 8.24593 130.132 8.115C130.045 7.98407 129.995 7.83184 129.988 7.67465V7.08203H126.373V8.07207C126.373 9.06211 126.521 9.7554 127.264 10.2018C128.848 11.0439 128.752 10.994 128.848 11.0439C129.015 11.1107 129.157 11.2275 129.254 11.3784C129.352 11.5292 129.4 11.7066 129.393 11.886V12.8761C128.1 13.0425 126.915 13.6807 126.065 14.668C125.215 15.6553 124.76 16.922 124.787 18.2246C124.787 21.79 127.609 23.721 130.928 23.721C134.247 23.721 137.069 21.79 137.069 18.2246C137.13 17.0293 136.766 15.851 136.041 14.8989C135.315 13.9468 134.276 13.2825 133.108 13.024ZM130.978 20.5522C130.526 20.5153 130.094 20.3474 129.735 20.069C129.377 19.7907 129.107 19.4139 128.96 18.9848C128.812 18.5557 128.792 18.0929 128.903 17.6528C129.014 17.2128 129.251 16.8147 129.585 16.5071C129.919 16.1995 130.335 15.9959 130.782 15.921C131.23 15.8461 131.69 15.9032 132.105 16.0854C132.521 16.2676 132.875 16.567 133.123 16.9469C133.371 17.3268 133.503 17.7708 133.503 18.2246C133.518 18.5511 133.461 18.8769 133.337 19.1793C133.213 19.4816 133.024 19.753 132.784 19.9747C132.543 20.1963 132.258 20.3628 131.946 20.4624C131.635 20.562 131.306 20.5923 130.981 20.5513L130.978 20.5522Z" fill="#EA4B37"/>
<path d="M189.861 7.03198C186.791 7.03198 183.72 9.01294 183.72 12.7761V23.671H187.336V13.1727C187.336 11.2906 188.326 10.1518 189.861 10.1518C191.397 10.1518 192.387 11.2898 192.387 13.1727V23.5221H196.002V12.7761C196.002 9.01294 192.931 7.03198 189.861 7.03198Z" fill="#EA4B37"/>
<path d="M80.4211 12.4794C80.2232 8.91402 77.2522 7.03198 74.2804 7.03198C71.2104 7.03198 68.1396 9.01294 68.1396 12.7761V13.2716H71.7549V13.1727C71.7549 11.2906 72.745 10.1518 74.2804 10.1518C75.8158 10.1518 76.8058 11.2898 76.8058 13.1727V17.5303C76.8058 19.4123 75.8648 20.5512 74.2804 20.5512C72.745 20.5512 71.7549 19.4132 71.7549 17.5303V17.2825H68.1405V17.9259C68.1405 21.69 71.2603 23.6701 74.2812 23.6701C77.3511 23.6701 80.4219 21.6891 80.4219 17.9259V12.7761L80.4211 12.4794Z" fill="#EA4B37"/>
<path d="M90.4248 18.3725C91.1511 18.367 91.8691 18.2175 92.5373 17.9326C93.2054 17.6476 93.8103 17.2329 94.317 16.7125C94.8237 16.192 95.2221 15.5762 95.489 14.9007C95.756 14.2251 95.8862 13.5033 95.8722 12.7771C95.8722 9.31066 93.0491 7.03296 89.6824 7.03296C86.3158 7.03296 83.5417 9.30891 83.5417 12.6782V17.1863C83.5417 21.3951 85.1262 23.7227 89.3358 23.7227H94.588V20.6992H89.4872C87.8529 20.6992 87.1596 19.6094 87.1596 17.5794V17.1863C88.0633 17.9728 89.227 18.3955 90.4248 18.3725ZM89.6816 10.2018C90.3378 10.2036 90.9666 10.4651 91.4306 10.9292C91.8946 11.3932 92.1561 12.022 92.158 12.6782C92.1614 13.0044 92.0996 13.3279 91.9764 13.6299C91.8531 13.9319 91.6709 14.2062 91.4402 14.4369C91.2096 14.6675 90.9352 14.8498 90.6333 14.973C90.3313 15.0963 90.0077 15.158 89.6816 15.1546C89.0253 15.1528 88.3965 14.8913 87.9325 14.4273C87.4685 13.9632 87.207 13.3344 87.2052 12.6782C87.2153 12.0244 87.4796 11.4003 87.942 10.938C88.4044 10.4758 89.0287 10.2117 89.6824 10.2018H89.6816Z" fill="#EA4B37"/>
<path d="M160.594 12.3805C159.395 12.3573 158.23 12.781 157.325 13.5692V13.1727C157.325 11.1427 157.969 10.0529 159.653 10.0529H164.754V7.03198H159.502C155.293 7.03198 153.708 9.30794 153.708 13.5683V18.0747C153.708 21.4423 156.53 23.72 159.848 23.72C163.167 23.72 166.038 21.444 166.038 17.9758C166.052 17.2499 165.922 16.5284 165.655 15.8531C165.388 15.1778 164.99 14.5621 164.484 14.0417C163.978 13.5213 163.373 13.1065 162.705 12.8214C162.038 12.5362 161.32 12.3864 160.594 12.3805ZM159.851 20.5021C159.195 20.5003 158.566 20.2388 158.102 19.7748C157.638 19.3108 157.376 18.6819 157.374 18.0257C157.368 17.6967 157.428 17.3697 157.549 17.0638C157.671 16.758 157.852 16.4795 158.083 16.2446C158.313 16.0097 158.589 15.8231 158.892 15.6957C159.195 15.5684 159.521 15.5027 159.85 15.5027C160.18 15.5027 160.505 15.5684 160.809 15.6957C161.112 15.8231 161.387 16.0097 161.618 16.2446C161.848 16.4795 162.03 16.758 162.151 17.0638C162.273 17.3697 162.333 17.6967 162.326 18.0257C162.334 18.3527 162.275 18.6778 162.153 18.9814C162.031 19.285 161.849 19.5608 161.618 19.7921C161.387 20.0234 161.111 20.2055 160.807 20.3274C160.504 20.4493 160.179 20.5084 159.852 20.5013L159.851 20.5021Z" fill="#EA4B37"/>
<path d="M59.6731 12.8262C59.0947 12.7858 58.5143 12.8661 57.9687 13.062C57.423 13.258 56.924 13.5652 56.5034 13.9642V13.4722C56.5034 11.3923 57.0479 10.1546 58.831 10.1546H63.6341V7.08203H58.6822C54.568 7.08203 52.938 9.31072 52.8391 13.3216V23.721H56.5034V19.8624C56.5034 19.6147 56.5533 18.327 56.5533 18.327C56.5576 17.9813 56.6305 17.64 56.7677 17.3227C56.9049 17.0054 57.1037 16.7185 57.3526 16.4786C57.6015 16.2387 57.8956 16.0507 58.2177 15.9253C58.5399 15.7999 58.8837 15.7397 59.2293 15.7482C59.5567 15.7391 59.8823 15.7994 60.1848 15.9252C60.4872 16.0509 60.7596 16.2393 60.9841 16.4778C61.2086 16.7163 61.38 16.9996 61.4872 17.3091C61.5943 17.6187 61.6348 17.9473 61.6059 18.2736V23.721H65.2693V18.3235C65.2985 17.5853 65.1729 16.8492 64.9007 16.1624C64.6284 15.4756 64.2155 14.8534 63.6885 14.3357C63.1615 13.8179 62.532 13.4162 61.8405 13.1562C61.1489 12.8963 60.4107 12.7839 59.6731 12.8262Z" fill="#EA4B37"/>
<path d="M29.367 26.642L28.0294 25.9986C27.748 25.8629 27.4824 25.6967 27.2372 25.5031C29.6622 22.7188 30.9835 19.1426 30.9514 15.4504C30.9461 11.3544 29.3166 7.42766 26.4202 4.53133C23.5239 1.63501 19.5972 0.00550858 15.5012 0.000181399C13.6031 -0.00917877 11.7206 0.34378 9.95483 1.04012V3.86318C11.6854 3.03425 13.5824 2.61121 15.5012 2.62628C18.9125 2.63644 22.1813 3.99604 24.5936 6.40817C27.0058 8.82029 28.3657 12.089 28.3761 15.5003C28.3983 18.5078 27.3446 21.4241 25.4051 23.7226C25.2111 23.4599 25.0451 23.1777 24.9096 22.8805L24.2662 21.5438C24.2004 21.3883 24.0839 21.2595 23.9357 21.1786C23.7874 21.0976 23.6162 21.0691 23.4497 21.0978C23.2832 21.1265 23.1314 21.2107 23.0188 21.3367C22.9063 21.4626 22.8396 21.6229 22.8297 21.7916V27.2854C22.8344 27.481 22.9142 27.6674 23.0526 27.8057C23.191 27.9441 23.3773 28.0239 23.5729 28.0286H29.0694C29.2323 28.0231 29.3886 27.9633 29.5137 27.8587C29.6387 27.7542 29.7252 27.6108 29.7594 27.4514C29.7936 27.2921 29.7736 27.1259 29.7025 26.9792C29.6314 26.8325 29.5133 26.7138 29.367 26.642Z" fill="#8A8A8D"/>
<path d="M15.4512 5.19981C13.5065 5.2008 11.6016 5.74994 9.95476 6.78423V9.06018C9.95769 9.51188 9.83866 9.95599 9.61022 10.3457C9.38178 10.7354 9.0524 11.0562 8.65683 11.2742C8.26126 11.4923 7.81417 11.5996 7.36271 11.5848C6.91125 11.5699 6.47216 11.4335 6.09176 11.19C5.37044 12.7598 5.05529 14.4857 5.17529 16.2091C5.29528 17.9326 5.84658 19.5982 6.77849 21.0529C7.7104 22.5076 8.99304 23.7047 10.5085 24.5342C12.0239 25.3636 13.7236 25.7989 15.4512 25.7998C17.4185 25.8054 19.3449 25.2378 20.9949 24.1664V21.7889C20.9921 21.3373 21.1111 20.8934 21.3395 20.5038C21.5679 20.1143 21.8972 19.7936 22.2926 19.5755C22.688 19.3575 23.135 19.2501 23.5863 19.2648C24.0376 19.2796 24.4766 19.4158 24.857 19.6591C25.4601 18.3385 25.7644 16.9012 25.7481 15.4495C25.748 14.0995 25.4813 12.7629 24.9632 11.5163C24.4451 10.2697 23.6859 9.13774 22.7291 8.18537C21.7724 7.233 20.6369 6.479 19.388 5.96665C18.139 5.4543 16.8011 5.1937 15.4512 5.19981Z" fill="url(#paint0_radial_29787_1369)"/>
<path d="M15.5012 28.3262C12.0897 28.3158 8.82095 26.9559 6.4088 24.5434C3.99665 22.1309 2.63715 18.862 2.62722 15.4504C2.61913 15.1688 2.63583 14.887 2.67712 14.6083V14.4105C2.67712 14.2127 2.72701 13.965 2.72701 13.7671V13.6183C2.99779 11.9151 3.60387 10.2825 4.51014 8.81517C4.84443 8.2561 5.22509 7.72609 5.64811 7.23075C5.84206 7.49349 6.00811 7.77571 6.14357 8.07285L6.78697 9.40954C6.86198 9.55825 6.98542 9.67697 7.13695 9.74613C7.28847 9.81528 7.45904 9.83074 7.62053 9.78996C7.78203 9.74918 7.9248 9.65459 8.02533 9.52179C8.12586 9.38898 8.17814 9.22589 8.17355 9.05939V3.56646C8.16887 3.37068 8.08895 3.18422 7.95039 3.04582C7.81183 2.90742 7.62528 2.82772 7.42949 2.82328H1.93218C1.76568 2.81869 1.60259 2.87097 1.46979 2.97149C1.33698 3.07202 1.24239 3.2148 1.20161 3.37629C1.16083 3.53778 1.17629 3.70835 1.24545 3.85988C1.3146 4.0114 1.43332 4.13485 1.58203 4.20986L2.91872 4.85325C3.20995 4.99981 3.49126 5.16532 3.76082 5.34871C2.87248 6.35694 2.13933 7.49192 1.58553 8.71625C1.27063 9.35509 1.00577 10.0174 0.793327 10.6972C0.743431 10.7961 0.743431 10.846 0.69441 10.9449C0.595494 11.1927 0.545598 11.4894 0.446681 11.787C0.446681 11.8369 0.396786 11.9359 0.396786 11.9849C0.307013 12.3106 0.240896 12.6423 0.198953 12.9775C0.211809 13.0634 0.194153 13.1511 0.149057 13.2253C0.0991606 13.473 0.0991606 13.7697 0.0501401 14.0175C0.057782 14.119 0.0406593 14.2208 0.000244141 14.3142C0.0394862 14.6922 0.0561478 15.0722 0.0501401 15.4522C0.0554673 19.5482 1.68497 23.475 4.58129 26.3713C7.47762 29.2676 11.4044 30.8971 15.5004 30.9024C17.3985 30.9118 19.2809 30.5588 21.0467 29.8625V27.0386C19.3157 27.8711 17.422 28.3108 15.5012 28.3262Z" fill="#00609C"/>
<path d="M175.451 10.8452V6.98218H171.935V16.1438L175.451 15.1537V14.0158C175.98 14.1795 176.443 14.5081 176.773 14.9535C177.103 15.399 177.281 15.9381 177.283 16.4922V17.5304C177.283 19.4124 176.342 20.5512 174.758 20.5512C174.139 20.5647 173.538 20.3417 173.078 19.9275C172.618 19.5134 172.333 18.9394 172.282 18.3226L168.716 19.3625C169.359 22.2346 171.737 23.77 174.807 23.77C177.877 23.77 180.897 21.789 180.897 18.0258V16.1438C180.897 13.4205 179.313 11.1918 175.45 10.8452" fill="#EA4B37"/>
<path d="M44.6184 10.9939V7.13086H41.102V16.2925L44.6184 15.3024V14.1644C45.1477 14.3282 45.611 14.6567 45.9405 15.1022C46.2701 15.5477 46.4488 16.0867 46.4505 16.6409V17.679C46.4505 19.5611 45.5095 20.6999 43.9251 20.6999C43.3061 20.7137 42.7052 20.4907 42.245 20.0765C41.7848 19.6624 41.5 19.0882 41.4487 18.4712L37.8833 19.5112C38.5267 22.3833 40.9042 23.9187 43.9741 23.9187C47.044 23.9187 50.0649 21.9377 50.0649 18.1745V16.2925C50.0649 13.6182 48.5304 11.3405 44.6184 10.9939Z" fill="#EA4B37"/>
<defs>
<radialGradient id="paint0_radial_29787_1369" cx="0" cy="0" r="1" gradientUnits="userSpaceOnUse" gradientTransform="translate(13.9499 11.9909) scale(14.1013 14.1013)">
<stop stop-color="white"/>
<stop offset="0.139" stop-color="#C9DEEA"/>
<stop offset="0.338" stop-color="#83B2CF"/>
<stop offset="0.517" stop-color="#4A8FBA"/>
<stop offset="0.67" stop-color="#2276AA"/>
<stop offset="0.791" stop-color="#0967A1"/>
<stop offset="0.864" stop-color="#00619D"/>
<stop offset="0.967" stop-color="#00609C"/>
</radialGradient>
</defs>
</svg>
