<svg width="95" height="58" viewBox="0 0 95 58" fill="none" xmlns="http://www.w3.org/2000/svg">
<path fill-rule="evenodd" clip-rule="evenodd" d="M76.3682 27.2259C76.3682 26.5857 76.9261 26.048 77.5955 26.048C78.2928 26.048 78.8227 26.5857 78.8227 27.2259C78.8227 27.8661 78.2928 28.4038 77.5955 28.4038C76.9261 28.4294 76.3682 27.8917 76.3682 27.2259ZM77.5955 28.1477C78.1254 28.1477 78.5159 27.738 78.5159 27.2515C78.5159 26.765 78.0975 26.3553 77.5955 26.3553C77.0655 26.3553 76.675 26.765 76.675 27.2515C76.675 27.738 77.0934 28.1477 77.5955 28.1477ZM77.4281 27.7636H77.1771V26.7138H77.6512C77.7349 26.7138 77.8465 26.7138 77.9302 26.765C78.0138 26.8162 78.0696 26.9186 78.0696 27.0211C78.0696 27.1491 77.986 27.2515 77.8744 27.2771L78.0696 27.738H77.7907L77.6234 27.3283H77.4281V27.7636ZM77.4281 27.1747H77.5676C77.6234 27.1747 77.6791 27.1747 77.707 27.1491C77.7349 27.1235 77.7628 27.0723 77.7628 27.0211C77.7628 26.9955 77.7349 26.9442 77.707 26.9186C77.6791 26.893 77.5955 26.893 77.5676 26.893H77.4281C77.456 26.9186 77.4281 27.1747 77.4281 27.1747ZM58.8242 19.3647L58.4895 21.3876C57.7643 21.0291 57.2343 20.9011 56.6486 20.9011C55.1146 20.9011 54.0547 22.3351 54.0547 24.358C54.0547 25.7663 54.7799 26.6114 55.9792 26.6114C56.4813 26.6114 57.0391 26.4577 57.7364 26.1248L57.3738 28.2502C56.6207 28.455 56.1187 28.5318 55.5608 28.5318C53.3574 28.5318 51.9628 26.9955 51.9628 24.5372C51.9628 21.234 53.8594 18.9038 56.5928 18.9038C56.9554 18.9038 57.2622 18.9294 57.5133 19.0062L58.3779 19.2111C58.5732 19.2879 58.6289 19.2879 58.8242 19.3647ZM51.9907 20.7475C51.9349 20.7219 51.8512 20.7219 51.7954 20.7219C51.126 20.7219 50.7355 21.0548 50.094 21.951L50.2892 20.7987H48.4205L47.1653 28.327H49.2294C49.9824 23.7178 50.1498 22.924 51.1539 22.924H51.2934C51.4886 22.0278 51.7117 21.362 52.0743 20.7475H51.9907ZM39.7182 28.2246C39.1604 28.4038 38.7141 28.4806 38.2399 28.4806C37.2079 28.4806 36.6222 27.8917 36.6222 26.8162C36.6222 26.6114 36.6501 26.3809 36.678 26.1248L36.8174 25.3822L36.9011 24.7933L37.7937 19.6464H39.8298L39.5787 20.7475H40.6386L40.3318 22.5655H39.3277L38.7699 25.7663C38.742 25.8944 38.742 25.9968 38.742 26.0736C38.742 26.4577 38.9651 26.637 39.4393 26.637C39.6903 26.637 39.8577 26.6114 39.9971 26.5601L39.7182 28.2246ZM31.6016 23.1801C31.6016 24.1275 32.0758 24.7933 33.1636 25.2798C33.9725 25.6639 34.1398 25.7663 34.1398 26.1248C34.1398 26.5857 33.7772 26.8162 32.9683 26.8162C32.3547 26.8162 31.7969 26.7394 31.1275 26.5089L30.8486 28.2502L30.9322 28.2758L31.2948 28.3526C31.4343 28.3782 31.6016 28.4038 31.8248 28.4294C32.2989 28.455 32.6894 28.5062 32.9683 28.5062C35.116 28.5062 36.1201 27.7124 36.1201 25.9968C36.1201 24.9725 35.7018 24.358 34.6698 23.8971C33.8051 23.513 33.7214 23.4362 33.7214 23.0777C33.7214 22.668 34.0561 22.4631 34.7255 22.4631C35.1439 22.4631 35.6739 22.5143 36.2038 22.5911L36.5106 20.8499C35.9249 20.7475 35.3113 20.6963 34.6976 20.6963C32.3826 20.645 31.6016 21.7717 31.6016 23.1801ZM75.1968 28.327H73.2443L73.328 27.5844C72.7702 28.1733 72.1844 28.4294 71.4313 28.4294C69.9252 28.4294 68.949 27.1747 68.949 25.3054C68.949 22.796 70.483 20.6707 72.296 20.6707C73.1049 20.6707 73.6906 21.0035 74.2763 21.6949L74.7226 19.0574H76.7587L75.1968 28.327ZM72.1565 26.5601C73.1328 26.5601 73.8022 25.5103 73.8022 24.0251C73.8022 23.0777 73.4117 22.5399 72.7144 22.5399C71.7939 22.5399 71.1245 23.5898 71.1245 25.075C71.0966 26.048 71.4592 26.5601 72.1565 26.5601ZM46.217 28.1733C45.5197 28.3782 44.8224 28.4806 44.0972 28.4806C41.8101 28.4806 40.6107 27.3283 40.6107 25.1006C40.6107 22.5143 42.1448 20.6194 44.2088 20.6194C45.9102 20.6194 46.9701 21.6949 46.9701 23.3593C46.9701 23.8971 46.8864 24.4604 46.7191 25.2286H42.619C42.5911 25.3566 42.5911 25.4079 42.5911 25.4591C42.5911 26.3553 43.2047 26.7906 44.404 26.7906C45.1292 26.7906 45.7986 26.637 46.5517 26.3041C46.5238 26.3041 46.217 28.1733 46.217 28.1733ZM45.0735 23.6666C45.1013 23.513 45.1013 23.3849 45.1013 23.2825C45.1013 22.668 44.7387 22.3095 44.1251 22.3095C43.4836 22.3095 43.0094 22.796 42.8142 23.6666H45.0735ZM23.3456 28.327H21.3095L22.481 21.2084L19.8312 28.327H18.4366L18.2693 21.2596L17.0141 28.327H15.0896L16.7352 19.0574H19.6918L19.7754 24.7933L21.7558 19.0574H24.9634L23.3456 28.327ZM28.6451 24.9725C28.422 24.9469 28.3383 24.9469 28.1709 24.9469C26.9995 24.9469 26.4137 25.331 26.4137 26.0992C26.4137 26.5601 26.7205 26.8674 27.1668 26.8674C28.0036 26.8418 28.6172 26.0736 28.6451 24.9725ZM30.1513 28.327H28.4498L28.4777 27.5332C27.9478 28.1733 27.2784 28.4294 26.3301 28.4294C25.2144 28.4294 24.4613 27.5844 24.4613 26.3809C24.4613 24.5372 25.8001 23.4874 28.0594 23.4874C28.3104 23.4874 28.5893 23.513 28.8961 23.5386C28.9519 23.2825 28.9798 23.1801 28.9798 23.0521C28.9798 22.5655 28.6172 22.3607 27.6689 22.3607C27.0831 22.3607 26.4137 22.4375 25.9675 22.5911L25.6607 22.668L25.4654 22.7192L25.7443 21.0291C26.7763 20.7475 27.4457 20.6194 28.1988 20.6194C29.956 20.6194 30.9043 21.3876 30.9043 22.8216C30.9043 23.2057 30.8764 23.4618 30.737 24.3324L30.3186 27.0211L30.2349 27.5076L30.1791 27.8917L30.1513 28.1733C30.1791 28.1221 30.1513 28.327 30.1513 28.327ZM62.3665 24.9725C62.1712 24.9469 62.0596 24.9469 61.8923 24.9469C60.7208 24.9469 60.1351 25.331 60.1351 26.0992C60.1351 26.5601 60.4419 26.8674 60.8882 26.8674C61.725 26.8418 62.3386 26.0736 62.3665 24.9725ZM63.8447 28.327H62.1433L62.1712 27.5332C61.6413 28.1733 60.9719 28.4294 60.0235 28.4294C58.9079 28.4294 58.1548 27.5844 58.1548 26.3809C58.1548 24.5372 59.4936 23.4874 61.7528 23.4874C61.976 23.4874 62.2828 23.513 62.5896 23.5386C62.6454 23.2825 62.6733 23.1801 62.6733 23.0521C62.6733 22.5655 62.3107 22.3607 61.3624 22.3607C60.7766 22.3607 60.1072 22.4375 59.6609 22.5911L59.3541 22.668L59.1589 22.7192L59.4378 21.0291C60.4698 20.7475 61.1392 20.6194 61.8923 20.6194C63.6495 20.6194 64.5978 21.3876 64.5978 22.8216C64.5978 23.2057 64.5699 23.4618 64.4305 24.3324L64.0121 26.9955L63.9563 27.482L63.9005 27.8661L63.8726 28.1221L63.8447 28.327ZM69.5905 20.7475C69.5347 20.7219 69.451 20.7219 69.3952 20.7219C68.7258 20.7219 68.3353 21.0548 67.6938 21.951L67.8891 20.7987H66.0203L64.7652 28.327H66.8292C67.5823 23.7178 67.7496 22.924 68.7537 22.924H68.8932C69.0326 22.1558 69.3116 21.4388 69.6742 20.7475H69.5905Z" fill="#E52727"/>
<path fill-rule="evenodd" clip-rule="evenodd" d="M60.9719 35.6246C60.9719 37.3402 60.3862 38.3389 59.4936 38.3389C58.8242 38.3645 58.4337 37.6731 58.4337 36.6745C58.4337 35.471 59.0195 34.1138 59.9678 34.1138C60.7209 34.1138 60.9719 34.8564 60.9719 35.6246ZM63.008 35.6502C63.008 33.7553 61.976 32.2702 60.0794 32.2702C57.8759 32.2702 56.4255 34.0626 56.4255 36.7001C56.4255 38.595 57.2902 40.1569 59.3542 40.1569C61.4461 40.1569 63.008 38.7998 63.008 35.6502ZM57.067 30.9642L56.7602 32.9871C56.0629 32.6286 55.5888 32.5006 55.0588 32.5006C53.6363 32.5006 52.6322 33.9346 52.6322 35.9575C52.6322 37.3658 53.3016 38.2109 54.4173 38.2109C54.8915 38.2109 55.4214 38.0572 56.0629 37.7243L55.7282 39.8497C55.0309 40.0545 54.5568 40.1313 54.0268 40.1313C51.9628 40.1313 50.6519 38.595 50.6519 36.1367C50.6519 32.8335 52.437 30.5033 54.9751 30.5033C55.3098 30.5033 55.5888 30.5289 55.8398 30.6057L56.6208 30.8106C56.8439 30.8618 56.8997 30.8874 57.067 30.9642ZM44.3762 32.3214C44.3204 32.2958 44.2367 32.2958 44.181 32.2958C43.5394 32.2958 43.2047 32.6286 42.5911 33.5249L42.7864 32.3726H41.0571L39.8856 39.9009H41.8101C42.5074 35.2917 42.6748 34.4979 43.5952 34.4979C43.651 34.4979 43.651 34.4979 43.7347 34.5235C43.902 33.6273 44.1531 32.9615 44.4599 32.347L44.3762 32.3214ZM69.4232 39.8497H67.6102L67.6939 39.1071C67.1639 39.696 66.6061 39.9521 65.9088 39.9521C64.5142 39.9521 63.5938 38.6974 63.5938 36.8281C63.5938 34.3187 65.0162 32.1933 66.7176 32.1933C67.4707 32.1933 68.0286 32.5262 68.5585 33.2432L68.9769 30.6057H70.8736L69.4232 39.8497ZM66.5782 38.0828C67.4986 38.0828 68.1122 37.033 68.1122 35.5478C68.1122 34.6003 67.7496 34.0882 67.0802 34.0882C66.2156 34.0882 65.602 35.1381 65.602 36.6233C65.602 37.5707 65.9367 38.0828 66.5782 38.0828ZM26.3859 39.8241C25.7444 40.0289 25.075 40.1313 24.4056 40.1313C22.2579 40.1313 21.1422 38.979 21.1422 36.7513C21.1422 34.165 22.5647 32.2702 24.4892 32.2702C26.0791 32.2702 27.0832 33.32 27.0832 35.01C27.0832 35.5478 26.9995 36.1111 26.8322 36.8793H23.0389C23.011 37.0073 23.011 37.0586 23.011 37.1098C23.011 37.9804 23.5967 38.4157 24.7124 38.4157C25.4097 38.4157 26.0233 38.2621 26.6927 37.9292L26.3859 39.8241ZM25.2981 35.3429C25.2981 35.1893 25.326 35.0613 25.326 34.9588C25.326 34.3443 24.9913 33.9858 24.4056 33.9858C23.7919 33.9858 23.3736 34.4723 23.1783 35.3429H25.2981ZM49.2015 39.8241C48.56 40.0289 47.8906 40.1313 47.2212 40.1313C45.0735 40.1313 43.9578 38.979 43.9578 36.7513C43.9578 34.165 45.3803 32.2702 47.3049 32.2702C48.8947 32.2702 49.8988 33.32 49.8988 35.01C49.8988 35.5478 49.8151 36.1111 49.6478 36.8793H45.8266C45.7987 37.0073 45.7987 37.0586 45.7987 37.1098C45.7987 37.9804 46.3844 38.4157 47.5001 38.4157C48.1974 38.4157 48.811 38.2621 49.4804 37.9292L49.2015 39.8241ZM48.1416 35.3429C48.1695 35.1893 48.1695 35.0613 48.1695 34.9588C48.1695 34.3443 47.8348 33.9858 47.2491 33.9858C46.6354 33.9858 46.2171 34.4723 46.0218 35.3429H48.1416ZM75.9778 39.8241C75.3363 40.0289 74.6669 40.1313 73.9974 40.1313C71.8498 40.1313 70.7341 38.979 70.7341 36.7513C70.7341 34.165 72.1566 32.2702 74.109 32.2702C75.6989 32.2702 76.703 33.32 76.703 35.01C76.703 35.5478 76.6193 36.1111 76.4519 36.8793H72.6307C72.6028 37.0073 72.6028 37.0586 72.6028 37.1098C72.6028 37.9804 73.1886 38.4157 74.3043 38.4157C75.0016 38.4157 75.6152 38.2621 76.2846 37.9292L75.9778 39.8241ZM74.89 35.3429C74.89 35.1893 74.9179 35.0613 74.9179 34.9588C74.9179 34.3443 74.5832 33.9858 73.9974 33.9858C73.3838 33.9858 72.9654 34.4723 72.7702 35.3429H74.89ZM20.6959 32.6799C20.3333 32.4494 19.8034 32.2445 19.1061 32.2445C18.3251 32.2445 17.7115 32.3982 17.7115 33.1408C17.7115 34.4723 20.5286 33.9858 20.5286 36.8537C20.5286 39.4656 18.6598 40.1569 16.9863 40.1569C16.2332 40.1569 15.3686 39.9265 14.7271 39.6704L15.2012 37.7499C15.5917 38.0828 16.3448 38.2877 17.0142 38.2877C17.6278 38.2877 18.5482 38.134 18.5482 37.161C18.5482 35.6502 15.7312 36.2135 15.7312 33.5505C15.7312 31.1179 17.3768 30.4009 18.9945 30.4009C19.8871 30.4009 20.7517 30.5289 21.2259 30.8362L20.6959 32.6799ZM31.9922 39.8241C31.6017 40.0033 31.0717 40.1057 30.2908 40.1057C28.6172 40.1057 27.5852 38.5693 27.5852 36.7001C27.5852 34.2419 29.0914 32.2958 31.2949 32.2958C31.769 32.2958 32.5221 32.475 33.1078 32.7823L32.6895 34.5747C32.2711 34.3187 31.8527 34.165 31.4064 34.165C30.3744 34.165 29.6492 35.0357 29.6492 36.572C29.6492 37.4683 30.1792 38.1852 31.0159 38.1852C31.518 38.1852 31.8806 38.0828 32.299 37.8524L31.9922 39.8241ZM39.1883 37.9292C39.0767 38.5693 39.0209 39.2351 38.9373 39.8753H37.0964L37.2359 38.6718H37.208C36.6222 39.4912 36.0365 40.0545 34.9766 40.0545C33.833 40.0545 33.1915 38.9278 33.1915 37.4683C33.1915 36.9561 33.2194 36.6745 33.331 35.9063L33.8609 32.4238H35.9249L35.3671 35.9319C35.3113 36.316 35.2276 36.6745 35.2276 37.0842C35.2276 37.5195 35.4508 37.9804 36.0086 37.9292C36.8454 37.9292 37.3474 36.9817 37.4869 35.8807L38.0726 32.4238H40.0529L39.1883 37.9292ZM77.8744 39.7728H77.5676V38.5437H77.1213V38.2621H78.3207V38.5437H77.8744V39.7728ZM79.9384 39.7728H79.6316V38.5181L79.3527 39.7728H79.0459L78.767 38.5181V39.7728H78.4602V38.2621H78.9343L79.1853 39.4656H79.2132L79.4643 38.2621H79.9105C79.9384 38.2621 79.9384 39.7728 79.9384 39.7728Z" fill="#F3AE12"/>
</svg>
