<svg width="24" height="25" viewBox="0 0 24 25" fill="none" xmlns="http://www.w3.org/2000/svg">
<mask id="mask0_29787_1385" style="mask-type:alpha" maskUnits="userSpaceOnUse" x="0" y="0" width="24" height="25">
<rect y="0.449951" width="24" height="24" fill="#D9D9D9"/>
</mask>
<g mask="url(#mask0_29787_1385)">
<path d="M11.95 18.45C12.3 18.45 12.5958 18.3291 12.8375 18.0875C13.0792 17.8458 13.2 17.55 13.2 17.2C13.2 16.85 13.0792 16.5541 12.8375 16.3125C12.5958 16.0708 12.3 15.95 11.95 15.95C11.6 15.95 11.3042 16.0708 11.0625 16.3125C10.8208 16.5541 10.7 16.85 10.7 17.2C10.7 17.55 10.8208 17.8458 11.0625 18.0875C11.3042 18.3291 11.6 18.45 11.95 18.45ZM11.05 14.6H12.9C12.9 14.05 12.9625 13.6166 13.0875 13.3C13.2125 12.9833 13.5667 12.55 14.15 12C14.5833 11.5666 14.925 11.1541 15.175 10.7625C15.425 10.3708 15.55 9.89995 15.55 9.34995C15.55 8.41662 15.2083 7.69995 14.525 7.19995C13.8417 6.69995 13.0333 6.44995 12.1 6.44995C11.15 6.44995 10.3792 6.69995 9.7875 7.19995C9.19583 7.69995 8.78333 8.29995 8.55 8.99995L10.2 9.64995C10.2833 9.34995 10.4708 9.02495 10.7625 8.67495C11.0542 8.32495 11.5 8.14995 12.1 8.14995C12.6333 8.14995 13.0333 8.29578 13.3 8.58745C13.5667 8.87912 13.7 9.19995 13.7 9.54995C13.7 9.88328 13.6 10.1958 13.4 10.4875C13.2 10.7791 12.95 11.05 12.65 11.3C11.9167 11.95 11.4667 12.4416 11.3 12.775C11.1333 13.1083 11.05 13.7166 11.05 14.6ZM12 22.45C10.6167 22.45 9.31667 22.1875 8.1 21.6625C6.88333 21.1375 5.825 20.425 4.925 19.525C4.025 18.625 3.3125 17.5666 2.7875 16.35C2.2625 15.1333 2 13.8333 2 12.45C2 11.0666 2.2625 9.76662 2.7875 8.54995C3.3125 7.33328 4.025 6.27495 4.925 5.37495C5.825 4.47495 6.88333 3.76245 8.1 3.23745C9.31667 2.71245 10.6167 2.44995 12 2.44995C13.3833 2.44995 14.6833 2.71245 15.9 3.23745C17.1167 3.76245 18.175 4.47495 19.075 5.37495C19.975 6.27495 20.6875 7.33328 21.2125 8.54995C21.7375 9.76662 22 11.0666 22 12.45C22 13.8333 21.7375 15.1333 21.2125 16.35C20.6875 17.5666 19.975 18.625 19.075 19.525C18.175 20.425 17.1167 21.1375 15.9 21.6625C14.6833 22.1875 13.3833 22.45 12 22.45ZM12 20.45C14.2333 20.45 16.125 19.675 17.675 18.125C19.225 16.575 20 14.6833 20 12.45C20 10.2166 19.225 8.32495 17.675 6.77495C16.125 5.22495 14.2333 4.44995 12 4.44995C9.76667 4.44995 7.875 5.22495 6.325 6.77495C4.775 8.32495 4 10.2166 4 12.45C4 14.6833 4.775 16.575 6.325 18.125C7.875 19.675 9.76667 20.45 12 20.45Z" fill="#1C1B1F"/>
</g>
</svg>
