<svg width="95" height="58" viewBox="0 0 95 58" fill="none" xmlns="http://www.w3.org/2000/svg">
<path d="M57.4137 30.2712L57.9323 30.4268C57.8978 30.5737 57.8459 30.6947 57.7681 30.7898C57.6903 30.8849 57.6039 30.9627 57.4915 31.0059C57.3792 31.0577 57.2409 31.0837 57.068 31.0837C56.8605 31.0837 56.6963 31.0577 56.558 30.9972C56.4284 30.9367 56.316 30.833 56.2209 30.6774C56.1258 30.5305 56.074 30.3317 56.074 30.0983C56.074 29.7871 56.1604 29.5451 56.3246 29.3722C56.4889 29.1994 56.7309 29.1216 57.0334 29.1216C57.2754 29.1216 57.4569 29.1734 57.5952 29.2685C57.7335 29.3636 57.8373 29.5105 57.8978 29.718L57.3792 29.8304C57.3619 29.7698 57.3446 29.7266 57.3186 29.7007C57.2841 29.6575 57.2495 29.6229 57.1976 29.597C57.1458 29.571 57.0939 29.5624 57.0421 29.5624C56.9124 29.5624 56.8087 29.6143 56.7395 29.7266C56.6877 29.8044 56.6617 29.9341 56.6617 30.0983C56.6617 30.3058 56.6963 30.4527 56.7568 30.5305C56.8173 30.6083 56.9124 30.6515 57.0248 30.6515C57.1371 30.6515 57.2236 30.6169 57.2754 30.5564C57.3446 30.4786 57.3878 30.3922 57.4137 30.2712Z" fill="#225E63"/>
<path d="M58.1399 30.0982C58.1399 29.787 58.2263 29.545 58.3992 29.3721C58.5721 29.1992 58.8141 29.1128 59.1253 29.1128C59.4451 29.1128 59.6871 29.1992 59.86 29.3635C60.0328 29.5363 60.1193 29.7697 60.1193 30.0809C60.1193 30.3056 60.0847 30.4871 60.0069 30.6254C59.9291 30.7637 59.8254 30.8761 59.6784 30.9539C59.5402 31.0317 59.3586 31.0749 59.1512 31.0749C58.9351 31.0749 58.7622 31.0403 58.6153 30.9712C58.477 30.902 58.3646 30.7983 58.2695 30.6427C58.1745 30.4871 58.1399 30.3229 58.1399 30.0982ZM58.7277 30.0982C58.7277 30.2883 58.7622 30.4266 58.8314 30.5131C58.9005 30.5995 58.9956 30.6427 59.1253 30.6427C59.2549 30.6427 59.35 30.5995 59.4191 30.5217C59.4883 30.4353 59.5229 30.2883 59.5229 30.0809C59.5229 29.8994 59.4883 29.7697 59.4105 29.6919C59.3413 29.6055 59.2376 29.5709 59.1166 29.5709C58.9956 29.5709 58.9005 29.6141 58.8314 29.7006C58.7622 29.7697 58.7277 29.908 58.7277 30.0982Z" fill="#225E63"/>
<path d="M60.4223 29.1475H61.1916L61.4855 30.3057L61.7794 29.1475H62.5486V31.049H62.0646V29.5969L61.6929 31.049H61.2607L60.8891 29.5969V31.049H60.405V29.1475H60.4223Z" fill="#225E63"/>
<path d="M62.9285 29.1475H63.9052C64.1213 29.1475 64.2769 29.1993 64.3806 29.303C64.4843 29.4068 64.5362 29.5451 64.5362 29.7352C64.5362 29.9254 64.4757 30.081 64.3633 30.1847C64.2509 30.2971 64.0694 30.3489 63.836 30.3489H63.5162V31.0577H62.9285V29.1475ZM63.5162 29.96H63.6632C63.7755 29.96 63.8533 29.9427 63.9052 29.8994C63.9484 29.8562 63.9743 29.813 63.9743 29.7525C63.9743 29.692 63.9571 29.6401 63.9138 29.5969C63.8706 29.5537 63.8015 29.5364 63.6891 29.5364H63.5249V29.96H63.5162Z" fill="#225E63"/>
<path d="M64.8472 29.1475H65.4349V30.5823H66.3511V31.049H64.8472V29.1475Z" fill="#225E63"/>
<path d="M66.6453 29.1475H67.233V31.049H66.6453V29.1475Z" fill="#225E63"/>
<path d="M68.8226 30.7291H68.1571L68.062 31.0403H67.4656L68.183 29.1387H68.8226L69.54 31.0403H68.9263L68.8226 30.7291ZM68.7016 30.3228L68.4942 29.64L68.2867 30.3228H68.7016Z" fill="#225E63"/>
<path d="M69.7227 29.1475H70.2672L70.9846 30.202V29.1475H71.5378V31.049H70.9846L70.2758 30.0032V31.049H69.7227V29.1475Z" fill="#225E63"/>
<path d="M71.7966 29.1475H73.5858V29.6142H72.9894V31.049H72.4017V29.6142H71.8053V29.1475H71.7966Z" fill="#225E63"/>
<path d="M50.3422 32.0431L52.045 31.5072L51.4918 30.2798C51.0856 30.7898 50.6793 31.4467 50.3422 32.0431ZM49.7631 26.4335L46.4267 19L22 20.383L28.7679 38.8456L41.7937 34.7399C40.964 33.5471 40.6614 32.1296 41.6209 31.4381C42.6927 30.6602 44.309 31.5591 45.3376 32.8297C46.3316 31.1701 49.1235 27.3065 49.7631 26.4335Z" fill="#225E63"/>
<path d="M45.6666 24.3719C46.6866 24.3719 47.5163 23.594 47.5163 22.6259C47.5163 21.6578 46.6866 20.8799 45.6666 20.8799C44.6467 20.8799 43.8169 21.6578 43.8169 22.6259C43.8169 23.5853 44.6467 24.3719 45.6666 24.3719ZM44.154 25.1239H47.1792V33.0327H44.154V25.1239Z" fill="#FEFEFE"/>
<path d="M42.6584 27.4317C42.6843 27.4404 42.7016 27.4317 42.7016 27.4058V25.4005C42.7016 25.3746 42.6843 25.3486 42.6584 25.3313C42.6584 25.3313 42.2608 25.072 41.0507 25.0029C40.9902 24.9683 39.927 24.9597 39.6418 25.0029C35.2336 25.3573 35.0693 28.5468 35.0693 28.6851V29.463C35.0693 29.5581 35.0693 32.8167 39.6418 33.1019C40.0912 33.1365 40.9642 33.1019 41.0507 33.1019C42.1052 33.1019 42.8313 32.7821 42.8313 32.7821C42.8572 32.7735 42.8745 32.7475 42.8745 32.7216V30.8459C42.8745 30.82 42.8572 30.8114 42.8399 30.8287C42.8399 30.8287 42.5114 31.088 41.0766 31.2349C40.6704 31.2781 40.4716 31.2608 40.3246 31.2349C38.2847 30.8892 38.1897 29.4025 38.1897 29.4025C38.1897 29.3765 38.181 29.3333 38.181 29.316V28.7456C38.181 28.7196 38.181 28.6764 38.1897 28.6591C38.1897 28.6591 38.328 27.0601 40.3246 26.8872H41.0766C41.9496 26.9996 42.6584 27.4317 42.6584 27.4317Z" fill="#FEFEFE"/>
<path d="M26.668 33.007C26.668 33.033 26.6853 33.0503 26.7112 33.0503H29.6586C29.6846 33.0503 29.7019 33.033 29.7019 33.007V30.7079C29.7019 30.6819 29.7191 30.6646 29.7451 30.6646C29.7451 30.6646 34.4558 31.0017 34.4558 27.8468C34.4558 25.3489 31.4997 25.0809 30.5316 25.1241C30.5144 25.1241 26.7112 25.1241 26.7112 25.1241C26.6853 25.1241 26.668 25.1414 26.668 25.1673V33.007ZM29.65 28.91V26.8442H30.3761C30.3761 26.8442 31.4219 26.8874 31.5084 27.6048C31.5256 27.6567 31.5256 28.0111 31.5084 28.0284C31.3701 28.8668 30.4625 28.91 30.4625 28.91H29.65Z" fill="#FEFEFE"/>
<path d="M45.7523 36.8491C45.9943 36.8491 46.1845 36.8491 46.4957 36.7109C47.5675 36.149 51.1891 27.3067 55.0096 24.5839C55.0355 24.5666 55.0614 24.5407 55.0787 24.5148C55.1047 24.4802 55.1047 24.4456 55.1047 24.4456C55.1047 24.4456 55.1047 24.2641 54.5428 24.2641C51.1459 24.169 47.6107 31.3 45.7523 34.1178C45.7264 34.1524 45.6054 34.1178 45.6054 34.1178C45.6054 34.1178 44.3607 32.6484 43.2803 32.0865C43.2543 32.0779 43.1333 32.0347 43.0037 32.0433C42.9172 32.0433 42.4159 32.1471 42.1825 32.3891C41.9059 32.683 41.9146 32.8472 41.9146 33.2016C41.9146 33.2275 41.9319 33.3485 41.9664 33.409C42.2344 33.8758 43.4358 35.5353 44.4299 36.4515C44.5768 36.5639 44.8102 36.8491 45.7523 36.8491Z" fill="#2BBC5D"/>
<path d="M56.0122 21.9131H58.8387C59.4005 21.9131 59.8499 21.9909 60.187 22.1378C60.5328 22.2934 60.818 22.5095 61.0341 22.7861C61.2588 23.0713 61.4231 23.3998 61.5182 23.7715C61.6219 24.1431 61.6737 24.5407 61.6737 24.9643C61.6737 25.6212 61.5959 26.1311 61.449 26.4942C61.3021 26.8572 61.0946 27.1597 60.8267 27.4104C60.5587 27.6524 60.2735 27.8166 59.971 27.9031C59.5561 28.0154 59.1758 28.0673 58.8387 28.0673H56.0122V21.9131ZM57.9138 23.3047V26.667H58.3805C58.7781 26.667 59.0634 26.6238 59.2276 26.5374C59.3918 26.451 59.5301 26.2954 59.6252 26.0793C59.7203 25.8632 59.7722 25.5002 59.7722 25.0075C59.7722 24.3506 59.6684 23.9097 59.4523 23.6677C59.2363 23.4257 58.8905 23.3047 58.3892 23.3047H57.9138Z" fill="#225E63"/>
<path d="M62.2004 26.0361L64.0156 25.9238C64.0588 26.2176 64.1366 26.4424 64.2576 26.598C64.4564 26.8486 64.733 26.9696 65.096 26.9696C65.364 26.9696 65.5801 26.9091 65.727 26.7795C65.874 26.6498 65.9517 26.5029 65.9517 26.3387C65.9517 26.1831 65.8826 26.0361 65.7443 25.9065C65.606 25.7768 65.2775 25.6645 64.7676 25.5521C63.9291 25.3619 63.3414 25.1113 62.9784 24.8001C62.6153 24.4889 62.4425 24.0913 62.4425 23.6073C62.4425 23.2875 62.5375 22.9936 62.7191 22.7084C62.9006 22.4231 63.1772 22.207 63.5488 22.0428C63.9205 21.8786 64.4218 21.8008 65.0615 21.8008C65.848 21.8008 66.4531 21.9477 66.8593 22.2416C67.2742 22.5355 67.5162 23.0022 67.594 23.6419L65.7962 23.7456C65.7443 23.469 65.6492 23.2702 65.4936 23.1405C65.3381 23.0109 65.1306 22.9504 64.8627 22.9504C64.6379 22.9504 64.4737 22.9936 64.3613 23.0887C64.249 23.1838 64.1971 23.2961 64.1971 23.4344C64.1971 23.5295 64.2403 23.6246 64.3354 23.7024C64.4218 23.7802 64.6379 23.8579 64.975 23.9271C65.8048 24.1086 66.4012 24.2901 66.7642 24.4716C67.1273 24.6532 67.3866 24.8865 67.5508 25.1545C67.715 25.4224 67.7928 25.7336 67.7928 26.0707C67.7928 26.4683 67.6805 26.8313 67.4644 27.1598C67.2483 27.4969 66.9371 27.7476 66.5482 27.9204C66.1592 28.0933 65.6579 28.1797 65.0615 28.1797C64.0156 28.1797 63.2895 27.9809 62.8833 27.5747C62.4857 27.1684 62.2609 26.6585 62.2004 26.0361Z" fill="#225E63"/>
<path d="M68.2791 26.0361L70.0942 25.9238C70.1374 26.2176 70.2152 26.4424 70.3362 26.598C70.535 26.8486 70.8116 26.9696 71.1746 26.9696C71.4426 26.9696 71.6587 26.9091 71.8056 26.7795C71.9526 26.6498 72.0304 26.5029 72.0304 26.3387C72.0304 26.1831 71.9612 26.0361 71.8229 25.9065C71.6846 25.7768 71.3562 25.6645 70.8462 25.5521C70.0078 25.3619 69.42 25.1113 69.057 24.8001C68.7026 24.4889 68.5211 24.0913 68.5211 23.6073C68.5211 23.2875 68.6162 22.9936 68.7977 22.7084C68.9792 22.4231 69.2558 22.207 69.6274 22.0428C69.9991 21.8786 70.5004 21.8008 71.1401 21.8008C71.9266 21.8008 72.5317 21.9477 72.9379 22.2416C73.3528 22.5355 73.5948 23.0022 73.6726 23.6419L71.8748 23.7456C71.8229 23.469 71.7278 23.2702 71.5722 23.1405C71.4167 23.0109 71.2092 22.9504 70.9413 22.9504C70.7165 22.9504 70.5523 22.9936 70.4399 23.0887C70.3276 23.1838 70.2757 23.2961 70.2757 23.4344C70.2757 23.5295 70.3189 23.6246 70.414 23.7024C70.5004 23.7802 70.7165 23.8579 71.0536 23.9271C71.8834 24.1086 72.4798 24.2901 72.8429 24.4716C73.2059 24.6532 73.4652 24.8865 73.6294 25.1545C73.7936 25.4224 73.8714 25.7336 73.8714 26.0707C73.8714 26.4683 73.7591 26.8313 73.543 27.1598C73.3269 27.4969 73.0157 27.7476 72.6268 27.9204C72.2378 28.0933 71.7365 28.1797 71.1401 28.1797C70.0942 28.1797 69.3681 27.9809 68.9619 27.5747C68.5556 27.1684 68.3309 26.6585 68.2791 26.0361Z" fill="#225E63"/>
</svg>
