<svg width="48" height="49" viewBox="0 0 48 49" fill="none" xmlns="http://www.w3.org/2000/svg">
<rect y="0.902588" width="48" height="48" rx="24" fill="#5BCB50"/>
<path fill-rule="evenodd" clip-rule="evenodd" d="M31.516 20.3171C31.5265 20.3273 31.537 20.3378 31.5472 20.3483C32.1476 20.9666 32.1476 21.9501 31.5472 22.5684L22.9248 31.4485C22.672 31.709 22.3477 31.8581 22.013 31.8951L21.8692 31.9041C21.4847 31.9098 21.0982 31.7688 20.8005 31.4798C20.79 31.4695 20.7795 31.4591 20.7692 31.4485L16.4581 27.0085C15.8577 26.3902 15.8577 25.4067 16.4581 24.7884C17.036 24.1932 17.9871 24.1792 18.5824 24.7571L18.6136 24.7884L21.8468 28.1176L29.3916 20.3483C29.9696 19.7531 30.9207 19.7391 31.516 20.3171Z" fill="white"/>
</svg>
