<svg width="95" height="58" viewBox="0 0 95 58" fill="none" xmlns="http://www.w3.org/2000/svg">
<path fill-rule="evenodd" clip-rule="evenodd" d="M43.5465 34.8783C43.6413 34.7227 43.7752 34.5948 43.935 34.5073C43.8996 34.5472 43.8678 34.5901 43.8398 34.6355C43.3756 35.3717 43.7 36.7898 44.6033 37.7261C45.2851 38.4352 46.0699 38.6294 46.5828 38.3303C46.1088 38.9772 45.1122 38.8956 44.2769 38.0292C43.3736 37.089 43.0647 35.6437 43.5465 34.8783ZM29.8066 20.204C29.7241 20.2979 29.627 20.3779 29.5191 20.441C28.711 20.9092 27.1977 20.5226 26.2167 19.528C25.2745 18.5839 25.2085 17.4883 25.9486 17.0356C25.5601 17.5563 25.7543 18.4421 26.5314 19.2347C27.5279 20.2293 29.0198 20.643 29.8066 20.204ZM31.2052 37.1162C31.1408 37.209 31.07 37.2972 30.9935 37.3804C30.0222 38.4371 28.169 38.4138 26.9413 37.1997C25.7136 35.9856 25.6941 34.1401 26.7859 33.1902C26.8594 33.1269 26.9366 33.0678 27.017 33.0134C26.3371 33.9847 26.512 35.4961 27.5823 36.5528C28.6527 37.6096 30.2165 37.7903 31.2052 37.1162ZM42.9657 30.3288C42.4625 30.8008 41.4641 30.591 40.6676 29.7615C39.8129 28.8699 39.5681 27.648 40.0848 27.0905C40.1727 26.9983 40.2794 26.9261 40.3976 26.8787C40.3723 26.9001 40.349 26.9234 40.3257 26.9467C39.8206 27.4848 40.079 28.6951 40.9337 29.577C41.6233 30.2821 42.4373 30.5502 42.9657 30.3288ZM32.7982 28.3337C32.7456 28.3986 32.6878 28.459 32.6253 28.5144C31.8308 29.2118 30.2825 28.9845 29.2296 27.9316C28.1768 26.8787 28.1029 25.4606 28.9965 24.8429C29.0258 24.8217 29.0563 24.8022 29.0878 24.7846C28.5594 25.4606 28.7518 26.6243 29.6706 27.5392C30.6244 28.5047 31.9862 28.8 32.7982 28.3337ZM39.2922 35.3251C38.6628 36.1721 37.2933 36.0905 36.2812 35.057C35.2691 34.0236 35.0652 32.4967 35.78 31.7352C35.8716 31.6372 35.9762 31.5522 36.0909 31.4827C35.4887 32.2442 35.7218 33.6739 36.695 34.6705C37.5303 35.5155 38.5968 35.735 39.2922 35.3251ZM42.8083 24.4136C42.3304 24.6079 41.532 24.3242 40.8832 23.6366C40.1062 22.8304 39.8867 21.828 40.349 21.4298C40.4594 21.3379 40.5947 21.2811 40.7375 21.2666C40.6536 21.2923 40.5756 21.3346 40.5083 21.3909C40.0596 21.7794 40.2966 22.7624 41.0658 23.5666C41.6408 24.1844 42.3343 24.4913 42.8083 24.4136ZM37.4254 24.3009L37.4118 24.3126C36.829 24.8196 35.6149 24.5321 34.731 23.6249C33.8472 22.7177 33.6898 21.5832 34.3425 21.1384C34.3849 21.1082 34.4297 21.0815 34.4766 21.0587C33.9715 21.5308 34.1716 22.574 35.0069 23.4306C35.7781 24.2349 36.8096 24.569 37.4254 24.3009Z" fill="#8F96A3"/>
<path fill-rule="evenodd" clip-rule="evenodd" d="M43.3986 25.6471C43.4836 25.6054 43.5748 25.5779 43.6686 25.5655C43.5848 25.6101 43.493 25.6378 43.3986 25.6471ZM38.5013 25.5519C38.5152 25.5406 38.5282 25.5283 38.5402 25.515C39.4687 24.6292 39.0666 22.7954 37.6893 21.3618C36.9123 20.5362 35.669 19.9204 35.7467 18.7723C35.748 18.6858 35.7667 18.6004 35.8018 18.5213C35.8368 18.4422 35.8875 18.371 35.9507 18.3119C35.9408 18.356 35.935 18.4008 35.9332 18.4459C35.8788 19.5979 37.1434 20.2448 37.9438 21.0917C39.3541 22.5642 39.7912 24.4136 38.8685 25.2858C38.758 25.3899 38.6346 25.4793 38.5013 25.5519ZM34.4355 19.0715C34.4096 19.1623 34.3703 19.2487 34.3189 19.3279C34.0159 19.8213 33.0388 19.6581 32.5279 20.371L32.5512 20.305C32.9222 19.291 34.0159 19.4969 34.4355 19.0715ZM31.5643 20.8353C31.631 20.6322 31.6645 20.4197 31.6634 20.2059C31.6751 18.8325 31.137 18.8461 30.7562 17.8981C30.5833 17.4746 30.593 17.1211 30.7465 16.8511C30.7517 17.0624 30.7992 17.2704 30.8864 17.463C31.2885 18.4168 31.8305 18.4343 31.8421 19.7941C31.8548 20.161 31.7581 20.5235 31.5643 20.8353ZM34.0625 29.7712C35.2824 28.4716 34.9483 26.2843 33.2699 24.5709C31.6576 22.9217 29.1905 22.3039 27.6558 23.2694C26.702 23.8366 26.3737 25.212 24.1825 24.4C22.677 23.8386 21.8087 22.3758 22.2283 21.354C22.2283 21.3346 22.2438 21.3151 22.2535 21.2957C22.2535 22.2456 23.1005 23.3704 24.3787 23.8677C26.601 24.7341 26.9041 23.3529 27.8559 22.8012C29.377 21.8649 31.8829 22.5351 33.538 24.2251C35.3038 26.0279 35.6496 28.3046 34.315 29.5498C34.2357 29.6271 34.1513 29.6991 34.0625 29.7654V29.7712ZM36.9142 41.5841C36.6585 41.7625 36.3651 41.8795 36.0568 41.926C35.7485 41.9725 35.4337 41.9473 35.1367 41.8522C33.7595 41.4637 32.759 39.8513 32.9766 38.3555C33.1437 37.2152 33.6662 37.0326 33.4933 35.5329C33.3388 34.3147 32.7815 33.1831 31.9101 32.318C31.1607 31.5526 30.2107 31.014 29.1691 30.7639C26.8769 30.2297 27.2052 30.9581 25.756 31.1349C24.2019 31.3292 22.5235 30.3035 22.0962 28.864C22.0066 28.5858 21.9791 28.2913 22.0157 28.0013C22.0523 27.7113 22.152 27.4329 22.3079 27.1856C22.2285 27.5553 22.2486 27.9394 22.3662 28.2987C22.8227 29.7518 24.5283 30.8105 26.0823 30.6532C27.5373 30.5055 27.1935 29.7732 29.5091 30.3579C30.5675 30.6303 31.5318 31.1857 32.2986 31.9644C33.1868 32.8393 33.7663 33.9793 33.9498 35.2124C34.1441 36.7101 33.6274 36.883 33.4797 38.0136C33.2855 39.4997 34.3189 41.1218 35.7079 41.5452C36.0983 41.6716 36.5165 41.6851 36.9142 41.5841ZM42.5069 41.6948C42.4621 41.7185 42.416 41.7399 42.369 41.7589C41.3608 42.1475 40.069 41.3238 39.527 39.9193C39.2763 39.3488 39.2425 38.7064 39.4318 38.1127C39.7426 37.0695 40.9859 37.0151 41.2054 35.3387C41.3996 33.9925 40.8169 32.3704 39.663 31.1679C38.2216 29.6722 36.1255 29.1671 34.8065 30.0374C36.0711 28.7999 38.4722 29.2992 40.0942 30.9776C41.2812 32.2053 41.8775 33.8409 41.7124 35.1813C41.5084 36.852 40.2671 36.8792 39.9641 37.9126C39.7811 38.5085 39.824 39.1509 40.0845 39.7173C40.5682 40.9178 41.592 41.7104 42.5069 41.6948ZM46.8991 33.7982C46.7522 33.8472 46.597 33.8664 46.4426 33.8547C46.2881 33.8431 46.1376 33.8007 45.9997 33.7302C45.2926 33.4213 45.0556 32.9726 44.1426 32.8425C43.956 32.8154 43.7668 32.8115 43.5792 32.8308C43.9156 32.7117 44.2771 32.6823 44.6282 32.7453C45.551 32.8949 45.7938 33.3495 46.5125 33.6739C46.6355 33.7317 46.7655 33.7735 46.8991 33.7982ZM43.4452 32.1237C43.7401 32.0098 43.9916 31.8059 44.164 31.5409C44.5525 31.0125 44.5253 30.0374 45.3509 30.1461C44.9624 30.3773 44.9196 31.0456 44.6321 31.4418C44.4995 31.6386 44.3235 31.8023 44.1178 31.9205C43.912 32.0387 43.682 32.1082 43.4452 32.1237ZM41.9222 26.0259C41.0131 25.4626 40.0495 25.2955 39.3522 25.6374C40.0476 25.0546 41.2015 25.1867 42.2913 25.8763C43.5928 26.6942 43.9755 27.8014 44.7564 28.39C45.0214 28.6161 45.3432 28.7653 45.6869 28.8213C45.6027 28.8642 45.5111 28.8905 45.4169 28.899C44.9876 28.9437 44.6127 28.7047 44.331 28.4891C43.5656 27.918 43.2004 26.8243 41.9222 26.0317V26.0259Z" fill="white"/>
<path fill-rule="evenodd" clip-rule="evenodd" d="M42.2913 25.8745C41.1588 25.1577 39.9602 25.0392 39.2745 25.7055C38.2682 26.6846 38.7092 28.9516 40.3546 30.6591C41.9222 32.2831 43.8512 32.6017 44.6283 31.4556C45.0615 30.8592 44.9507 29.649 46.2562 30.2298C47.0954 30.6047 47.8433 31.7023 47.9346 32.6444C48.0259 33.5866 47.4003 34.0781 46.5087 33.674C45.7899 33.3496 45.5374 32.897 44.6244 32.7454C43.8804 32.625 43.2005 32.8484 42.7731 33.4681C42.3846 34.0198 42.2739 34.789 42.3846 35.6341C42.6468 37.5767 43.1131 37.3688 43.6531 38.6121C44.2145 39.9039 43.9251 41.254 42.9674 41.6114C41.963 41.9766 40.6363 41.1277 40.0807 39.7154C39.8202 39.1491 39.7773 38.5067 39.9602 37.9108C40.2555 36.8773 41.4968 36.8501 41.7086 35.1795C41.8737 33.8391 41.2773 32.2035 40.0904 30.9757C38.4683 29.2973 36.0673 28.7981 34.8027 30.0355C33.4642 31.3468 33.8178 34.0411 35.6904 35.9391C36.7316 37.0327 38.344 37.5339 38.311 39.63C38.2896 41.0908 37.0969 41.9611 35.7079 41.5434C34.319 41.1258 33.2874 39.5056 33.4798 38.0137C33.6274 36.8831 34.148 36.7103 33.9499 35.2125C33.7664 33.9794 33.1868 32.8394 32.2987 31.9645C31.5329 31.1864 30.57 30.6311 29.513 30.358C27.1974 29.7752 27.5413 30.5056 26.0863 30.6533C24.5322 30.8106 22.8188 29.7519 22.3623 28.3047C21.9291 26.8885 22.8752 25.7308 24.4176 25.6958C25.1324 25.6873 25.8311 25.9086 26.4107 26.3271C27.6131 27.1042 27.8696 28.6233 29.8937 29.6645C31.5527 30.5192 33.3166 30.5037 34.3248 29.5499C35.6496 28.2989 35.2961 26.028 33.5477 24.2252C31.883 22.5352 29.3848 21.865 27.856 22.7994C26.906 23.3511 26.6011 24.742 24.3787 23.8659C22.8499 23.2714 21.9505 21.7815 22.3448 20.7577C22.7392 19.734 24.1961 19.5242 25.5851 20.175C26.6593 20.6839 26.8866 21.1715 28.2833 21.5348C29.3459 21.8164 30.3386 21.7698 31.0204 21.3405C31.2833 21.178 31.498 20.9483 31.6425 20.6751C31.7869 20.4019 31.8558 20.0952 31.8422 19.7864C31.8305 18.4072 31.2885 18.3994 30.8864 17.4553C30.4843 16.5112 30.9952 15.8663 32.0053 16.0236C32.9766 16.1771 34.0761 17.0241 34.488 17.9293C34.7424 18.4888 34.622 18.7743 34.488 18.9764C34.1538 19.53 32.9339 19.225 32.5318 20.3051C32.1685 21.2764 32.6386 22.7217 33.8644 23.9747C35.6127 25.7541 37.7729 26.3058 38.8588 25.2859C39.7815 24.4137 39.3444 22.5663 37.9341 21.0919C37.1338 20.2449 35.8691 19.598 35.9235 18.446C35.9702 17.7098 36.856 17.6146 37.769 18.1372C38.682 18.6597 39.3677 19.631 39.3367 20.342C39.3114 20.9248 38.9792 20.9248 39.1949 21.8242C39.4364 22.6843 39.8954 23.4677 40.5275 24.099C41.057 24.667 41.7022 25.1148 42.4195 25.4122C43.7794 25.9328 43.4821 25.4335 44.1854 25.4316C44.8886 25.4297 45.7977 26.1465 46.2523 27.0498C46.7068 27.9531 46.5475 28.7651 45.8638 28.8234C45.4325 28.8583 45.0498 28.6038 44.7623 28.3882C43.9853 27.8054 43.5968 26.6923 42.2972 25.8745" fill="#A12EB7"/>
<path d="M70.8919 33.3905C68.4119 33.3905 67.1719 31.92 67.1719 28.9789V28.94C67.1796 26.0119 68.4242 24.5479 70.9055 24.5479H73.8699V26.1019H70.5364C69.8889 26.1019 69.4052 26.3324 69.0853 26.7935C68.7654 27.2545 68.6055 27.9849 68.6055 28.9847C68.6055 30.8885 69.2453 31.8397 70.5248 31.8384H73.8563V33.3925L70.8919 33.3905Z" fill="#A12EB7"/>
<path d="M66.2471 26.102H63.5741C63.0214 26.0767 62.4802 26.2652 62.0628 26.6284C61.6743 26.9781 61.4671 27.4909 61.4412 28.1669H66.2413V29.721H61.447V33.3906H60.0114V28.3767C60.0044 27.838 60.0804 27.3014 60.2368 26.7858C60.372 26.3404 60.6049 25.931 60.9186 25.5872C61.2339 25.2507 61.621 24.9897 62.0512 24.8237C62.5541 24.633 63.0887 24.5394 63.6266 24.5479H66.2471V26.102Z" fill="#A12EB7"/>
<path d="M58.8381 30.0434C58.8449 30.5094 58.7727 30.9731 58.6244 31.4149C58.4926 31.8091 58.2743 32.1689 57.9853 32.4678C57.6813 32.7693 57.3155 33.0013 56.913 33.1477C56.4323 33.3173 55.925 33.3995 55.4153 33.3905C54.9106 33.3997 54.4085 33.3174 53.9331 33.1477C53.5285 32.9985 53.1608 32.764 52.855 32.46C52.5591 32.1604 52.3323 31.7997 52.1906 31.4032C52.0373 30.9712 51.961 30.5155 51.9653 30.057V24.5479H53.4008V30.0065C53.3919 30.252 53.4353 30.4965 53.5281 30.7239C53.6208 30.9513 53.7609 31.1564 53.9389 31.3255C54.2983 31.6674 54.7995 31.8384 55.4386 31.8384H55.4736C56.1211 31.8384 56.6035 31.6674 56.9208 31.3255C57.0847 31.1485 57.212 30.9409 57.2953 30.7145C57.3787 30.4882 57.4164 30.2475 57.4064 30.0065V24.5479H58.8401L58.8381 30.0434Z" fill="#A12EB7"/>
</svg>
