<svg width="34" height="12" viewBox="0 0 34 12" fill="none" xmlns="http://www.w3.org/2000/svg">
<g clip-path="url(#clip0_12198_4770)">
<path d="M22.1405 0.0169983C19.7289 0.0169983 17.5737 1.26718 17.5737 3.57646C17.5737 6.22506 21.3959 6.40798 21.3959 7.73874C21.3959 8.29906 20.754 8.80056 19.6572 8.80056C18.101 8.80056 16.9379 8.09982 16.9379 8.09982L16.4401 10.4305C16.4401 10.4305 17.78 11.0225 19.5589 11.0225C22.1956 11.0225 24.2706 9.71108 24.2706 7.36202C24.2706 4.56314 20.4324 4.38566 20.4324 3.15078C20.4324 2.71184 20.9594 2.23108 22.0528 2.23108C23.2867 2.23108 24.2931 2.74074 24.2931 2.74074L24.7803 0.489938C24.7803 0.489938 23.6848 0.0169983 22.1402 0.0169983H22.1405ZM0.0755698 0.186998L0.0170898 0.526658C0.0170898 0.526658 1.03165 0.712298 1.94557 1.0829C3.12231 1.50756 3.20595 1.75508 3.40417 2.5228L5.56351 10.847H8.45827L12.9177 0.186998H10.0297L7.16423 7.43478L5.99497 1.29098C5.88787 0.587858 5.34455 0.186658 4.67985 0.186658H0.0759098L0.0755698 0.186998ZM14.0791 0.186998L11.8137 10.847H14.5677L16.825 0.186998H14.0791ZM29.439 0.186998C28.775 0.186998 28.4231 0.542638 28.165 1.16382L24.1302 10.847H27.0182L27.5768 9.23304H31.0951L31.4348 10.847H33.9831L31.7602 0.186998H29.439ZM29.8147 3.06714L30.6708 7.06724H28.3775L29.815 3.06714H29.8147Z" fill="#1434CB"/>
</g>
<defs>
<clipPath id="clip0_12198_4770">
<rect width="34" height="11.0391" fill="white"/>
</clipPath>
</defs>
</svg>
